<svg width="161" height="46" viewBox="0 0 161 46" fill="none" xmlns="http://www.w3.org/2000/svg">
<g clip-path="url(#clip0_7_529)">
<path d="M15.0112 18.8854L22.3291 13.7278L33.5875 21.6637V31.0773H37.3033V19.9005L33.5875 17.2305L25.548 11.4571L22.3423 9.15454L19.1207 11.4676L15.0112 14.4204L11.1606 17.1856L7.4448 19.8555L3.71579 22.5334L0 25.2034V29.4674V46H3.71579V26.8477L7.4448 24.22L11.1606 21.5976L15.0112 18.8854Z" fill="#18347E"/>
<path d="M11.2504 31.0773H7.53198V46H11.1606H11.2504H44.7348V42.3704H11.2504V31.0773Z" fill="#18347E"/>
<path d="M41.1168 13.2864L37.3984 10.6455L33.6826 8.00195L32.1207 6.89167L28.8383 4.55744L25.5903 2.247H25.5877L22.4322 0L19.2661 2.24964L16.0313 4.55215L15.1063 5.20775L12.7331 6.89696L11.2584 7.9438L7.54257 10.5873L3.81357 13.2388L0.0977783 15.8823V20.2177L3.81357 17.598L7.54257 14.9703L11.2584 12.3479L15.1063 9.63565L15.8648 9.10166L19.1445 6.78858L22.4242 4.47813L25.7172 6.79915L28.9863 9.10166L33.6826 12.414L37.3984 15.0337L41.1168 17.6535V34.8945H15.1063V38.5241H44.8326V15.9299L41.1168 13.2864Z" fill="#18347E"/>
<path d="M62.3148 18.8378L56.7887 34.7782H60.5256L61.5563 31.4976H67.6321L68.7316 34.7782H72.3073L66.8737 18.8378H62.3122H62.3148ZM62.3148 28.8832L64.5163 22.3246L66.7864 28.8832H62.3148Z" fill="#18347E"/>
<path d="M77.2652 18.8378H73.8269V34.7782H85.1513V31.7963H77.2652V18.8378Z" fill="#18347E"/>
<path d="M96.7321 25.4889H89.8291V18.8378H86.4146V34.7782H89.8291V28.1959H96.7084V34.7782H100.126V18.8378H96.7321V25.4889Z" fill="#18347E"/>
<path d="M107.118 18.8378L101.592 34.7782H105.329L106.36 31.4976H112.436L113.535 34.7782H117.111L111.677 18.8378H107.116H107.118ZM107.118 28.8832L109.32 22.3246L111.59 28.8832H107.118Z" fill="#18347E"/>
<path d="M128.684 19.9401C127.59 19.2052 126.326 18.8404 124.889 18.8404H118.768V34.7809H124.82C126.287 34.7809 127.571 34.4029 128.673 33.6468C129.773 32.8908 130.613 31.8994 131.194 30.6755C131.776 29.4515 132.067 28.1668 132.067 26.8212C132.067 25.399 131.776 24.0799 131.194 22.8639C130.613 21.6478 129.775 20.6724 128.684 19.9401ZM128.269 29.2744C127.925 30.1151 127.428 30.7759 126.778 31.2571C126.128 31.7382 125.399 31.9788 124.587 31.9788H122.225V21.5897H124.564C125.816 21.5897 126.815 22.0259 127.555 22.8982C128.295 23.7706 128.689 24.9866 128.737 26.5463C128.768 27.5244 128.61 28.4338 128.266 29.2744H128.269Z" fill="#18347E"/>
<path d="M138.713 18.8378L133.187 34.7782H136.924L137.955 31.4976H144.03L145.13 34.7782H148.706L143.272 18.8378H138.711H138.713ZM138.713 28.8832L140.915 22.3246L143.185 28.8832H138.713Z" fill="#18347E"/>
<path d="M161 21.7509V18.8378H150.088V34.7782H153.526V29.5493H160.244L160.268 26.66H153.526V21.7509H161Z" fill="#18347E"/>
<path d="M56.7887 38.6087H58.0123V45.8863H56.7887V38.6087ZM57.5128 42.4709L57.4917 38.606H59.1778C59.7434 38.6008 60.2323 38.6986 60.6498 38.9048C61.0648 39.111 61.3819 39.3859 61.6013 39.7322C61.8206 40.0785 61.9316 40.4644 61.9316 40.89C61.9316 41.5245 61.7255 42.0426 61.3132 42.4392C60.9009 42.8383 60.3221 43.063 59.5769 43.1185L62.4232 45.8837H60.8639L57.5128 42.4709ZM59.1038 42.2832C59.6059 42.2832 59.9971 42.1616 60.2772 41.9157C60.5573 41.6725 60.6895 41.3342 60.6763 40.9006C60.6551 40.475 60.5098 40.1631 60.2376 39.9622C59.9654 39.7639 59.5927 39.6661 59.117 39.674H57.756L57.7665 42.2805H59.1064L59.1038 42.2832Z" fill="#18347E"/>
<path d="M67.1115 38.6087H71.969V39.6661H68.3166V41.7492H71.5409L71.5303 42.8383H68.3166V44.7972H72.0324V45.8863H67.1115V38.6087Z" fill="#18347E"/>
<path d="M79.612 38.6087H81.203L83.7982 45.8863H82.49L81.9562 44.3478H78.8456L78.3223 45.8863H76.9612L79.6093 38.6087H79.612ZM81.602 43.3194L80.3863 39.8643L79.1706 43.3194H81.5994H81.602Z" fill="#18347E"/>
<path d="M88.772 38.6087H89.9877V44.776H93.6929V45.8863H88.772V38.6087Z" fill="#18347E"/>
<path d="M102.25 38.5242H107.108V39.5816H103.455V41.6647H106.68L106.669 42.7539H103.455V44.7127H107.171V45.8019H102.25V38.5242Z" fill="#18347E"/>
<path d="M113.614 45.6722C113.128 45.4528 112.75 45.1567 112.473 44.7813C112.198 44.4086 112.05 43.983 112.029 43.5098H113.202C113.287 43.9486 113.501 44.3002 113.847 44.5619C114.193 44.8236 114.658 44.9584 115.245 44.9637C115.866 44.9717 116.358 44.8686 116.714 44.6544C117.074 44.443 117.256 44.1548 117.264 43.79C117.264 43.4701 117.108 43.2216 116.794 43.0525C116.479 42.8806 115.959 42.767 115.234 42.7114C114.291 42.6269 113.583 42.4101 113.104 42.0558C112.626 41.7043 112.391 41.2231 112.399 40.6151C112.404 40.2239 112.533 39.8697 112.785 39.5471C113.036 39.2273 113.379 38.9735 113.815 38.7937C114.251 38.6113 114.745 38.5215 115.298 38.5215C115.898 38.5215 116.426 38.6298 116.884 38.8466C117.341 39.0634 117.703 39.3515 117.972 39.7163C118.242 40.0785 118.411 40.4803 118.48 40.9218H117.235C117.145 40.5305 116.939 40.2107 116.617 39.9595C116.294 39.7084 115.855 39.5815 115.298 39.5815C114.949 39.5815 114.648 39.6317 114.391 39.7322C114.138 39.8326 113.942 39.9675 113.81 40.134C113.678 40.3005 113.612 40.4803 113.612 40.668C113.612 40.9403 113.723 41.1571 113.947 41.3236C114.169 41.4875 114.531 41.5932 115.026 41.6435L115.277 41.6646C116.421 41.7492 117.246 41.9713 117.753 42.3281C118.258 42.6877 118.514 43.1635 118.522 43.7583C118.522 44.1627 118.398 44.5355 118.149 44.8791C117.901 45.2202 117.534 45.4924 117.045 45.696C116.556 45.8995 115.977 46 115.308 46C114.64 46 114.103 45.8916 113.617 45.6695L113.614 45.6722Z" fill="#18347E"/>
<path d="M125.7 39.5709H123.084V38.5241H129.543V39.5709H126.916V45.8017H125.703V39.5709H125.7Z" fill="#18347E"/>
<path d="M136.472 38.5241H138.063L140.658 45.8017H139.35L138.816 44.2632H135.706L135.182 45.8017H133.821L136.469 38.5241H136.472ZM138.462 43.2375L137.246 39.7824L136.031 43.2375H138.459H138.462Z" fill="#18347E"/>
<path d="M147.601 39.5709H144.985V38.5241H151.444V39.5709H148.817V45.8017H147.604V39.5709H147.601Z" fill="#18347E"/>
<path d="M156.082 38.5241H160.939V39.5815H157.287V41.6646H160.511L160.5 42.7538H157.287V44.7126H161.003V45.8017H156.082V38.5241Z" fill="#18347E"/>
</g>
<defs>
<clipPath id="clip0_7_529">
<rect width="161" height="46" fill="white"/>
</clipPath>
</defs>
</svg>
