<?xml version="1.0" encoding="UTF-8" standalone="no"?>
<!-- Created with Inkscape (http://www.inkscape.org/) -->

<svg
   version="1.1"
   id="svg1"
   width="263.66196"
   height="270.42255"
   viewBox="0 0 263.66196 270.42255"
   xmlns="http://www.w3.org/2000/svg"
   xmlns:svg="http://www.w3.org/2000/svg">
  <defs
     id="defs1" />
  <g
     id="g1">
    <path
       style="fill:#000000;stroke-width:0.909441"
       d="M 14.908536,202.55838 V 145.26186 L 72.334661,102.96783 C 103.91902,79.706115 131.17874,60.673797 132.91179,60.673797 c 1.73305,0 20.30147,12.71738 41.26315,28.260829 l 38.11215,28.260824 v 30.87106 30.87107 H 201.65901 191.03094 V 154.19414 129.4507 L 163.22928,109.06717 C 147.93837,97.856233 134.32617,88.683645 132.97996,88.683645 c -1.34622,0 -23.68038,15.455925 -49.631466,34.346505 l -47.183806,34.3465 v 51.23913 51.23914 H 25.536612 14.908536 Z m 39.475711,16.83786 v -40.45866 h 10.628077 10.628078 v 29.56595 29.56594 h 88.061198 88.06121 v 10.89272 10.89273 H 153.07353 54.384247 Z m 39.475716,-10.89271 v -10.89272 h 68.404517 68.40453 L 229.82868,151.8787 228.98836,106.14659 182.47642,72.517484 C 156.89485,54.02147 134.86298,38.888365 133.51669,38.888365 c -1.34628,0 -28.58386,18.854007 -60.527968,41.897788 L 14.908536,122.68393 V 108.91957 95.15523 L 72.766377,53.016874 C 104.58818,29.840779 131.84075,10.878517 133.32761,10.878517 c 1.48687,0 28.74305,18.995932 60.5693,42.213172 l 57.8659,42.213163 v 62.045698 62.04569 H 172.81138 93.859963 Z"
       id="path1" />
  </g>
</svg>
